PathFileType	4	(X/Y/Z)	C:/Users/opensim2020/Desktop/walking_exp_matlab/subject03_walking11_straight_02.trc																																																																																																																																								
DataRate	CameraRate	NumFrames	NumMarkers	Units	OrigDataRate	OrigDataStartFrame	OrigNumFrames																																																																																																																																				
100	100	6	46	mm	100	1843	357																																																																																																																																				
Frame#	Time	LFHD			RFHD			LBHD			RBHD			C7			T10			CLAV			STRN			RBAK			LSHO			LUPA			LELB			LFRM			LWRA			LWRB			LFIN			RSHO			RUPA			RELB			RFRM			RWRA			RWRB			RFIN			LASI			RASI			LPSI			RPSI			LTHI			LKNE			LTIB			LANK			LHEE			LTOE			RTHI			RKNE			RTIB			RANK			RHEE			RTOE			*39			*40			*41			*42			*43			*44			*45		
		X1	Y1	Z1	X2	Y2	Z2	X3	Y3	Z3	X4	Y4	Z4	X5	Y5	Z5	X6	Y6	Z6	X7	Y7	Z7	X8	Y8	Z8	X9	Y9	Z9	X10	Y10	Z10	X11	Y11	Z11	X12	Y12	Z12	X13	Y13	Z13	X14	Y14	Z14	X15	Y15	Z15	X16	Y16	Z16	X17	Y17	Z17	X18	Y18	Z18	X19	Y19	Z19	X20	Y20	Z20	X21	Y21	Z21	X22	Y22	Z22	X23	Y23	Z23	X24	Y24	Z24	X25	Y25	Z25	X26	Y26	Z26	X27	Y27	Z27	X28	Y28	Z28	X29	Y29	Z29	X30	Y30	Z30	X31	Y31	Z31	X32	Y32	Z32	X33	Y33	Z33	X34	Y34	Z34	X35	Y35	Z35	X36	Y36	Z36	X37	Y37	Z37	X38	Y38	Z38	X39	Y39	Z39	X40	Y40	Z40	X41	Y41	Z41	X42	Y42	Z42	X43	Y43	Z43	X44	Y44	Z44	X45	Y45	Z45	X46	Y46	Z46
																																																																																																																																											
45	0.44	-809.01801	1623.03333	912.05865	-820.94891	1633.6499	1044.10461	-931.52448	1565.72571	908.92084	-938.54553	1576.16724	1039.21924	-958.31152	1420.55408	974.7879	-1004.62634	1110.94421	984.09229	-839.00659	1339.00098	981.73682	-803.99762	1171.68872	981.03986	-1018.86591	1252.42603	1077.54724	-875.78998	1371.82837	824.40814	-867.80908	1176.93665	752.04504	-847.68317	1055.55127	740.24237	-809.76404	930.85333	743.70251	-785.96954	814.52136	774.86322	-798.45203	819.75574	719.94208	-774.62415	739.32367	730.03375	-882.79059	1369.22534	1138.8584	-876.81537	1147.5354	1212.83899	-855.15454	1036.80579	1225.45483	-827.17194	902.76508	1225.35034	-789.91431	811.31342	1188.1073	-819.57269	803.09955	1232.76672	-788.69702	735.51318	1221.52014	-843.30212	943.79919	867.31757	-844.70691	940.52759	1105.96057	-1005.65009	970.83185	917.93768	-1004.93109	972.35895	1067.08875	-897.45538	642.59741	834.92194	-885.80963	465.58395	877.7074	-928.29535	275.40701	878.35242	-932.83636	65.66585	922.17542	-970.06531	29.22649	959.97125	-778.09833	31.44183	942.90399	-852.03479	647.45203	1159.15527	-791.19861	477.26608	1140.37122	-908.27197	327.20795	1146.297	-1041.06909	156.05907	1109.6311	-1095.35095	147.3313	1056.40576	-945.0246	53.466	1098.65674	-900.93103	1677.7804	952.06683	NaN	NaN	NaN	NaN	NaN	NaN	NaN	NaN	NaN	NaN	NaN	NaN	NaN	NaN	NaN	NaN	NaN	NaN
46	0.45	-802.14612	1623.00073	912.33582	-814.09027	1633.39526	1044.29602	-924.92743	1566.30505	908.9046	-931.9649	1576.50781	1039.23328	-952.47314	1420.75659	974.50354	-998.69659	1111.06299	983.39069	-833.14423	1339.21558	981.42249	-798.10632	1171.92554	980.6225	-1013.00085	1252.4696	1077.06152	-869.79218	1372.33655	824.28961	-859.72882	1178.05261	751.12079	-837.64594	1057.01526	738.88782	-797.56818	933.13538	742.07361	-771.34839	817.26538	773.09491	-784.09198	822.34662	718.19958	-758.47156	742.51477	728.00458	-877.06293	1369.34265	1138.50684	-871.33765	1147.66968	1212.61328	-850.14752	1036.90222	1225.35913	-822.52985	902.78052	1225.35962	-785.35461	811.24524	1188.20728	-815.16711	803.04529	1232.81543	-784.66858	735.27472	1221.51721	-838.07959	943.6048	866.45959	-838.3468	940.9527	1105.08801	-999.78094	970.81293	917.6203	-998.6651	972.48163	1066.6814	-893.46075	642.38147	833.9231	-882.20355	465.41489	877.33441	-926.19684	275.44986	878.22253	-932.7066	65.73367	922.23694	-970.60022	29.77262	959.46582	-778.05023	31.43961	942.91174	-842.6123	648.4762	1158.29443	-779.86072	479.06137	1138.63904	-892.56775	325.26178	1144.80676	-1019.90668	149.82422	1108.20215	-1073.94263	138.94493	1055.72388	-919.51672	51.77966	1096.74048	-893.76721	1678.09509	952.29468	NaN	NaN	NaN	NaN	NaN	NaN	NaN	NaN	NaN	NaN	NaN	NaN	NaN	NaN	NaN	NaN	NaN	NaN
47	0.46	-795.24976	1622.86523	912.57678	-807.30389	1633.09863	1044.62756	-918.23804	1566.76746	908.95245	-925.33704	1576.74426	1039.24988	-946.56647	1420.88416	974.21014	-992.7041	1111.0835	982.66211	-827.34357	1339.34937	981.1322	-792.22406	1172.1344	980.17761	-1007.14069	1252.35266	1076.53845	-863.81476	1372.73975	824.12421	-851.84442	1179.0238	750.16986	-828.04346	1058.5321	737.48138	-785.48663	935.42773	740.48535	-756.8183	820.08905	771.35211	-769.88885	824.92834	716.56476	-742.52551	745.69275	726.20349	-871.30664	1369.3053	1138.24219	-865.86603	1147.64929	1212.44714	-845.13025	1036.88062	1225.35901	-817.79828	902.6875	1225.45715	-780.78595	811.02832	1188.38123	-810.74738	802.91644	1232.8717	-780.54028	734.90808	1221.59888	-832.09039	943.52246	865.51678	-831.94568	941.37427	1104.25732	-993.81433	970.73016	917.28546	-992.4328	972.53571	1066.2832	-888.82159	642.36407	833.72485	-878.57996	465.19897	877.00232	-924.19366	275.55228	878.0929	-932.56854	65.82291	922.28357	-971.94104	30.8112	958.7135	-778.02911	31.36742	942.85388	-833.36414	649.43744	1157.52295	-768.93103	480.72946	1136.92432	-876.91266	323.14783	1143.36157	-998.25983	143.43399	1106.94934	-1051.9696	130.27745	1054.5293	-894.01837	49.75109	1094.82397	-886.72803	1678.60193	952.76788	NaN	NaN	NaN	NaN	NaN	NaN	NaN	NaN	NaN	NaN	NaN	NaN	NaN	NaN	NaN	NaN	NaN	NaN
48	0.47	-788.39532	1622.75269	912.85236	-800.47931	1632.73242	1044.9104	-911.66296	1567.15027	909.10095	-918.78491	1576.88257	1039.43872	-940.74054	1420.94482	973.99988	-986.66742	1111.00806	981.96692	-821.49548	1339.33582	980.96619	-786.28516	1172.24487	979.74231	-1001.35205	1252.14978	1075.97266	-857.80597	1373.10999	824.01526	-844.0022	1180.04846	749.27618	-818.414	1059.96741	736.12939	-773.54266	937.74939	738.93292	-742.39154	823.08734	769.73035	-755.84167	827.55798	715.11517	-726.76251	748.93701	724.55267	-865.72028	1369.19934	1138.06604	-860.49683	1147.55957	1212.32153	-840.09894	1036.70544	1225.32886	-813.039	902.4632	1225.47351	-776.24335	810.70166	1188.47302	-806.08173	802.64355	1232.97266	-776.19714	734.50055	1221.56873	-826.27802	943.38696	864.70886	-825.54657	941.72095	1103.48792	-987.90405	970.54291	916.99799	-986.22198	972.49463	1065.89136	-884.52881	642.22211	833.05463	-874.99652	464.96927	876.71973	-922.25189	275.59723	878.01038	-932.41718	65.90673	922.48462	-971.36475	30.63593	959.15338	-777.90643	31.16276	943.08716	-824.32617	650.34735	1156.87	-758.47101	482.18338	1135.29651	-861.37445	320.92126	1142.01208	-976.10516	136.74626	1105.61597	-1029.59778	121.68452	1053.27124	-868.08075	47.7385	1092.89697	-879.55823	1678.58582	953.00238	NaN	NaN	NaN	NaN	NaN	NaN	NaN	NaN	NaN	NaN	NaN	NaN	NaN	NaN	NaN	NaN	NaN	NaN
49	0.48	-781.57965	1622.53882	913.24481	-793.70056	1632.26489	1045.30615	-905.00299	1567.41089	909.23914	-912.23187	1576.90759	1039.64136	-934.76837	1420.89539	973.81982	-980.57947	1110.88391	981.31238	-815.737	1339.47754	980.62335	-780.37024	1172.2666	979.33997	-995.55939	1251.82776	1075.36829	-851.82715	1373.37183	823.85962	-836.12976	1181.00439	748.50262	-809.02374	1061.34131	734.83228	-761.75775	940.00763	737.49188	-728.09058	826.06042	768.33478	-741.94556	830.20599	713.77191	-711.20972	752.22809	723.16388	-860.03754	1368.91003	1137.83289	-855.06079	1147.30481	1212.22717	-834.97516	1036.40503	1225.30615	-808.21539	902.14447	1225.55115	-771.58417	810.27747	1188.58643	-801.64063	802.40625	1233.07678	-771.729	733.93866	1221.47034	-820.37073	943.17078	863.99988	-819.51971	941.7934	1102.32434	-981.88556	970.30243	916.66718	-979.9646	972.36243	1065.50842	-879.0766	641.90497	833.58765	-871.48346	464.70148	876.41663	-920.31189	275.59659	877.89093	-932.29199	65.99741	922.52673	-971.38184	30.71563	959.24805	-777.86188	31.38831	942.7326	-815.37988	651.18085	1156.3855	-748.40125	483.48831	1133.81213	-846.02539	318.58148	1140.68884	-953.60608	130.13538	1103.98364	-1006.36603	112.6424	1052.03296	-841.87549	45.95095	1091.12256	-872.60583	1678.91248	953.51031	NaN	NaN	NaN	NaN	NaN	NaN	NaN	NaN	NaN	NaN	NaN	NaN	NaN	NaN	NaN	NaN	NaN	NaN
50	0.49	-774.76666	1622.20093	913.60034	-786.90887	1631.7323	1045.6814	-898.43726	1567.62085	909.43542	-905.44641	1576.77734	1039.68762	-928.80719	1420.77222	973.62207	-974.48083	1110.63806	980.74182	-809.75092	1339.34924	980.42114	-774.37341	1172.1521	978.87439	-989.74213	1251.43848	1074.74207	-845.80157	1373.60681	823.74292	-828.4231	1181.81091	747.68054	-799.73279	1062.5979	733.61566	-750.16736	942.24896	736.18427	-713.93976	829.06268	767.08081	-728.19318	832.82489	712.6781	-695.8916	755.49908	722.03571	-854.41382	1368.55469	1137.70679	-849.80719	1146.96484	1212.16235	-829.88879	1036.01685	1225.30151	-803.35205	901.70184	1225.57117	-766.83557	809.80035	1188.59814	-796.86017	801.85907	1233.12732	-767.2608	733.45221	1221.55591	-814.53864	942.86548	863.39374	-812.78888	942.18109	1102.03918	-975.83588	969.99219	916.36365	-973.71948	972.12518	1065.14771	-874.60547	641.72162	832.95782	-867.99524	464.38837	876.14075	-918.34064	275.55893	877.84229	-932.10345	66.02856	922.57788	-971.12036	30.75445	959.43024	-777.84552	31.29184	942.71545	-806.42657	651.8183	1155.79089	-738.80176	484.57532	1132.4751	-830.80621	316.18433	1139.35779	-930.82025	123.5759	1102.57922	-982.96582	104.05556	1050.25781	-815.41748	44.33986	1089.39758	-865.70892	1679.16211	953.64954	NaN	NaN	NaN	NaN	NaN	NaN	NaN	NaN	NaN	NaN	NaN	NaN	NaN	NaN	NaN	NaN	NaN	NaN
